<svg xmlns="http://www.w3.org/2000/svg" viewBox="0 0 481 159">
<style type="text/css"><![CDATA[.lead-color{fill: var(--svg-lead-color, #ffffff);}
]]></style>
  <g fill="none" fill-rule="evenodd">
    <path fill="currentcolor" d="M0 24.614L24.285.329h456.104v134.386L456.103 159H0V24.614"/>
    <path class="lead-color" d="M173.121 105.15h1.431v-9.643h3.446v-1.429h-8.325v1.429h3.448v9.643M178.754 100.767c.177-1.154.773-1.801 1.767-1.801.92 0 1.492.699 1.536 1.801h-3.303zm1.737-3.055c-1.807 0-3.063 1.496-3.063 3.704 0 2.012 1.137 3.877 3.182 3.877 1.108 0 1.825-.275 2.612-.858v-1.393c-.756.55-1.504.875-2.292.875-1.256 0-1.999-.753-2.204-2.191h4.616c0-2.698-1.112-4.014-2.851-4.014zM195.898 94.078h-1.358l-2.761 7.631-2.743-7.631h-1.433l4.033 11.168h.276l3.302-9.057 3.267 9.057h.281l4.044-11.168h-1.416l-2.719 7.631-2.773-7.631M210.01 105.15v-4.463c0-1.997-.951-2.975-2.233-2.975-.73 0-1.463.409-1.957 1.105h-.029v-4.739h-1.3v11.072h1.3v-5.229c.611-.759 1.064-1.055 1.637-1.055.784 0 1.285.7 1.285 1.767v4.517h1.297m5.439-1.479c-.353.374-.731.599-1.14.599-.539 0-.933-.42-.933-1.021 0-.858.961-1.284 2.073-1.705v2.127zm-1.155-2.466c-1.052.422-2.233.858-2.233 2.304 0 .942.64 1.784 1.603 1.784.601 0 1.2-.244 1.769-.746.12.519.425.746.992.746.409 0 .658-.127 1.253-.567v-.876c-.287.245-.55.391-.683.391-.161 0-.248-.098-.248-.375v-3.747c0-1.656-1.053-2.407-2.38-2.407-.946 0-1.666.324-2.177.993v1.576c.631-.832 1.357-1.202 2.075-1.202.787 0 1.184.37 1.184 1.279v.391l-1.155.456zm5.408-3.343v7.288h1.297v-3.815c0-1.252.702-2.239 1.591-2.239.308 0 .818.292 1.212.71l.686-1.248c-.539-.568-1.033-.846-1.562-.846-.611 0-1.238.54-1.898 1.82h-.029v-1.67h-1.297m7.187 2.905c.173-1.154.771-1.801 1.765-1.801.92 0 1.488.699 1.531 1.801h-3.296zm1.735-3.055c-1.81 0-3.064 1.496-3.064 3.704 0 2.012 1.139 3.877 3.183 3.877 1.109 0 1.823-.275 2.613-.858v-1.393c-.761.55-1.504.875-2.291.875-1.257 0-2.003-.753-2.208-2.191h4.616c0-2.698-1.109-4.014-2.849-4.014zM244.032 94.078h-1.36l-2.758 7.631-2.745-7.631h-1.432l4.029 11.168h.28l3.298-9.057 3.272 9.057h.276l4.047-11.168h-1.419l-2.714 7.631-2.774-7.631M254.625 103.671c-.351.374-.735.599-1.14.599-.543 0-.937-.42-.937-1.021 0-.858.967-1.284 2.077-1.705v2.127zm-1.153-2.466c-1.053.422-2.237.858-2.237 2.304 0 .942.642 1.784 1.605 1.784.604 0 1.199-.244 1.767-.746.114.519.424.746.994.746.407 0 .656-.127 1.257-.567v-.876c-.291.245-.552.391-.687.391-.163 0-.248-.098-.248-.375v-3.747c0-1.656-1.051-2.407-2.38-2.407-.951 0-1.666.324-2.173.993v1.576c.624-.832 1.355-1.202 2.074-1.202.785 0 1.181.37 1.181 1.279v.391l-1.153.456zm10.806 3.945v-4.5c0-1.994-.994-2.938-2.233-2.938-.732 0-1.46.409-1.958 1.105h-.028v-.955h-1.301v7.288h1.301v-5.229c.611-.759 1.064-1.055 1.634-1.055.79 0 1.282.7 1.282 1.767v4.517h1.303m5.436-1.479c-.349.374-.727.599-1.139.599-.539 0-.935-.42-.935-1.021 0-.858.969-1.284 2.074-1.705v2.127zm-1.151-2.466c-1.05.422-2.236.858-2.236 2.304 0 .942.644 1.784 1.608 1.784.598 0 1.196-.244 1.766-.746.117.519.425.746.989.746.413 0 .659-.127 1.26-.567v-.876c-.296.245-.552.391-.687.391-.16 0-.248-.098-.248-.375v-3.747c0-1.656-1.051-2.407-2.378-2.407-.953 0-1.666.324-2.178.993v1.576c.629-.832 1.36-1.202 2.074-1.202.787 0 1.181.37 1.181 1.279v.391l-1.151.456zm10.81 3.945v-4.5c0-1.994-.995-2.938-2.239-2.938-.729 0-1.457.409-1.955 1.105h-.031v-.955h-1.299v7.288h1.299v-5.229c.614-.759 1.07-1.055 1.638-1.055.79 0 1.284.7 1.284 1.767v4.517h1.303m4.737-3.391c-.795 0-1.319-.539-1.319-1.334 0-.714.588-1.312 1.301-1.312.688 0 1.268.583 1.268 1.28 0 .799-.522 1.366-1.25 1.366zm-.355 3.752c.802 0 2.149.24 2.149 1.165 0 .665-.672 1.054-1.812 1.054-1.181 0-1.823-.389-1.823-1.121 0-.646.611-1.098 1.486-1.098zm3.432-7.649h-2.697c-1.771 0-2.865.955-2.865 2.514 0 .537.12.993.348 1.366.248.392.616.701 1.101.928v.036c-.634.162-1.042.569-1.042 1.037 0 .325.205.619.659.925-1.138.307-1.651.942-1.651 2.008 0 1.283 1.257 2.205 3.021 2.205 1.945 0 3.098-.876 3.098-2.319 0-.923-.493-1.715-1.897-2.025-1.318-.29-2.001-.534-2.001-.938 0-.861 1.781-.344 2.654-1.383.308-.345.616-1.045.616-1.642 0-.619-.175-1.026-.688-1.595h1.344v-1.117zm4.63 5.809c-.346.374-.727.599-1.136.599-.539 0-.938-.42-.938-1.021 0-.858.966-1.284 2.074-1.705v2.127zm-1.149-2.466c-1.055.422-2.236.858-2.236 2.304 0 .942.642 1.784 1.608 1.784.596 0 1.194-.244 1.764-.746.117.519.429.746.994.746.41 0 .657-.127 1.258-.567v-.876c-.296.245-.555.391-.69.391-.158 0-.246-.098-.246-.375v-3.747c0-1.656-1.053-2.407-2.382-2.407-.948 0-1.664.324-2.173.993v1.576c.626-.832 1.36-1.202 2.071-1.202.787 0 1.181.37 1.181 1.279v.391l-1.149.456zm13.203-2.191c1.302 0 2.24 1.02 2.24 2.435 0 1.575-.866 2.547-2.24 2.547-1.255 0-2.118-1.024-2.118-2.565 0-1.397.894-2.417 2.118-2.417zm.016 6.279c2.098 0 3.549-1.558 3.549-3.862 0-2.157-1.492-3.719-3.549-3.719-1.961 0-3.461 1.625-3.461 3.719 0 2.24 1.446 3.862 3.461 3.862zM316.869 105.15v-9.643h3.45v-1.429h-8.323v1.429h3.445v9.643h1.428M323.278 103.671c-.347.374-.726.599-1.14.599-.54 0-.934-.42-.934-1.021 0-.858.965-1.284 2.074-1.705v2.127zm-1.15-2.466c-1.052.422-2.234.858-2.234 2.304 0 .942.644 1.784 1.606 1.784.597 0 1.196-.244 1.768-.746.113.519.424.746.993.746.404 0 .659-.127 1.253-.567v-.876c-.293.245-.553.391-.682.391-.167 0-.25-.098-.25-.375v-3.747c0-1.656-1.057-2.407-2.382-2.407-.955 0-1.662.324-2.177.993v1.576c.628-.832 1.364-1.202 2.074-1.202.787 0 1.181.37 1.181 1.279v.391l-1.15.456zm15.291 3.945v-4.576c0-1.72-.844-2.862-2.171-2.862-.942 0-1.627.602-2.195 1.316-.443-.857-1.125-1.316-1.958-1.316-.618 0-1.246.361-1.912 1.105v-.955h-1.302v7.288h1.302v-5.292c.543-.696.978-.928 1.636-.928.644 0 1.181.505 1.181 1.691v4.529h1.295v-5.292c.47-.538 1.042-.942 1.461-.928.751 0 1.366.602 1.366 1.703v4.517h1.297m5.905-1.479c-.353.374-.731.599-1.145.599-.538 0-.926-.42-.926-1.021 0-.858.962-1.284 2.071-1.705v2.127zm-1.16-2.466c-1.048.422-2.229.858-2.229 2.304 0 .942.639 1.784 1.606 1.784.602 0 1.196-.244 1.773-.746.108.519.419.746.988.746.404 0 .658-.127 1.255-.567v-.876c-.295.245-.556.391-.689.391-.162 0-.245-.098-.245-.375v-3.747c0-1.656-1.057-2.407-2.382-2.407-.942 0-1.667.324-2.174.993v1.576c.625-.832 1.355-1.202 2.076-1.202.782 0 1.181.37 1.181 1.279v.391l-1.16.456zM352.229 97.862l-2.902 3.569 3.28 3.719h1.76l-3.388-3.719 2.804-3.569h-1.554M347.971 105.15h1.299V94.078h-1.299zM356.938 94.792c-.425 0-.777.391-.777.862 0 .469.352.86.777.86.419 0 .772-.391.772-.86 0-.471-.353-.862-.772-.862M356.279 105.149h1.299v-7.287h-1.299zM375.486 105.15V94.078h-1.325l-3.317 4.546-3.303-4.546h-1.343v11.072h1.43v-8.616h.031l3.062 4.281h.244l3.06-4.281h.025v8.616h1.436M381.574 103.671c-.348.374-.726.599-1.14.599-.535 0-.934-.42-.934-1.021 0-.858.965-1.284 2.074-1.705v2.127zm-1.156-2.466c-1.047.422-2.233.858-2.233 2.304 0 .942.648 1.784 1.611 1.784.597 0 1.196-.244 1.762-.746.119.519.43.746.993.746.415 0 .664-.127 1.259-.567v-.876c-.294.245-.553.391-.682.391-.162 0-.25-.098-.25-.375v-3.747c0-1.656-1.052-2.407-2.382-2.407-.955 0-1.663.324-2.177.993v1.576c.628-.832 1.359-1.202 2.074-1.202.792 0 1.181.37 1.181 1.279v.391l-1.156.456zM390.486 97.862l-2.904 3.569 3.288 3.719h1.747l-3.384-3.719 2.797-3.569h-1.544M386.221 105.15h1.304V94.078h-1.304zM397.351 103.671c-.352.374-.731.599-1.14.599-.538 0-.936-.42-.936-1.021 0-.858.962-1.284 2.076-1.705v2.127zm-3.257-4.966v1.576c.625-.832 1.361-1.202 2.076-1.202.788 0 1.181.37 1.181 1.279v.391l-1.155.456c-1.052.422-2.239.858-2.239 2.304 0 .942.649 1.784 1.611 1.784.602 0 1.196-.244 1.768-.746.113.519.424.746.993.746.406 0 .659-.127 1.255-.567v-.876c-.29.245-.555.391-.689.391-.16 0-.245-.098-.245-.375v-3.747c0-1.656-1.055-2.407-2.382-2.407-.947 0-1.662.324-2.174.993zm13.379 6.445v-7.288h-1.302v5.208c-.419.665-.978 1.025-1.564 1.025-.885 0-1.341-.586-1.341-1.605v-4.628h-1.299v4.529c0 1.85.931 2.902 2.264 2.902.641 0 1.402-.418 1.94-1.07v.927h1.302m3.201-7.288v7.288h1.304v-3.815c0-1.252.7-2.239 1.596-2.239.301 0 .815.292 1.209.71l.682-1.248c-.538-.568-1.034-.846-1.565-.846-.609 0-1.237.54-1.896 1.82h-.026v-1.67h-1.304m9.821 5.809c-.352.374-.731.599-1.135.599-.543 0-.936-.42-.936-1.021 0-.858.962-1.284 2.071-1.705v2.127zm-1.15-2.466c-1.058.422-2.239.858-2.239 2.304 0 .942.644 1.784 1.609 1.784.604 0 1.196-.244 1.765-.746.113.519.424.746 1 .746.399 0 .651-.127 1.248-.567v-.876c-.29.245-.555.391-.684.391-.165 0-.25-.098-.25-.375v-3.747c0-1.656-1.049-2.407-2.377-2.407-.947 0-1.667.324-2.174.993v1.576c.62-.832 1.356-1.202 2.076-1.202.782 0 1.176.37 1.176 1.279v.391l-1.15.456zm11.272 3.945v-7.288h-1.299v5.208c-.42.665-.981 1.025-1.56 1.025-.892 0-1.348-.586-1.348-1.605v-4.628h-1.299v4.529c0 1.85.931 2.902 2.264 2.902.646 0 1.402-.418 1.943-1.07v.927h1.299M251.478 96.783h3.753v-.742h-3.753zM320.247 96.783h3.759v-.742h-3.759zM219.599 41.295h-7.605V35.97h7.118v-3.187h-7.118v-5.139h7.373v-3.182h-10.56v20.015l10.792.004v-3.186M311.661 27.644v-3.182h-10.554v20.015l10.787.004v-3.186h-7.61V35.97h7.127v-3.187h-7.127v-5.139h7.377M191.052 36.06h9.102v8.417h3.191V24.462h-3.191v8.421h-9.102v-8.421h-3.191v20.015h3.191V36.06M238.898 44.735c2.613 0 4.653-.763 6.058-2.263 1.315-1.406 2.014-3.463 2.014-5.933V24.462h-3.191v11.594c0 2.039-.293 3.204-1.005 3.997-.487.539-1.629 1.44-3.828 1.44-1.419 0-2.561-.5-3.497-1.526-.729-.824-.953-1.695-.953-3.739V24.466l-3.186-.004v12.357c0 2.531.815 4.609 2.354 6.015 1.35 1.224 3.199 1.901 5.234 1.901m29.453-.258V24.462h-3.04v14.315c-.28-.358-11.27-14.315-11.27-14.315h-2.497v20.015h3.031V30.253c.289.362 11.124 14.224 11.124 14.224h2.652m28.772-20.015h-3.208l-4.971 12.956-4.989-12.956h-3.234l7.791 20.183.988.004 7.623-20.187m28.025 5.722c0 .836-.228 1.483-.672 1.944-.509.517-1.324.78-2.402.78h-1.263v-5.38h1.263c2.078 0 3.053.819 3.074 2.582v.074zm3.079 14.293h3.82l-.526-.802c-1.052-1.613-1.488-2.277-2.182-3.532-.608-1.104-1.229-2.246-1.858-3.173-.561-.819-1.1-1.44-1.686-1.949 1.686-.953 2.617-2.651 2.617-4.803 0-1.738-.569-3.195-1.647-4.208-1.069-1.013-2.591-1.548-4.406-1.548h-4.739v20.019l3.191-.004v-8.391h.703c1.09 0 2.039.306 4.32 4.251l2.393 4.14zm11.762-16.833c1.336 0 2.63.642 3.829 1.906l.457.483.142.146v-4.182l-.039-.026-.103-.082c-1.264-.931-2.674-1.427-4.088-1.427-1.655 0-3.07.522-4.07 1.5-1.009.983-1.544 2.372-1.544 4.006 0 2.772 1.928 4.307 3.911 5.644l.483.328.888.612c.513.366.871.659 1.164.948.738.712 1.078 1.415 1.078 2.212 0 .811-.681 2.1-2.496 2.1-1.57 0-3.105-.944-4.303-2.66l-.479-.682-.151-.215.099 4.846.026.026c1.522 1.272 3.135 1.867 5.088 1.867 1.457 0 2.785-.569 3.747-1.6.944-1.022 1.475-2.436 1.475-3.992 0-3.29-2.027-4.872-3.924-6.105l-1.38-.871a11.124 11.124 0 01-1.164-.85c-.737-.638-1.061-1.246-1.061-1.979 0-1.151.996-1.953 2.415-1.953m41.042 16.841h3.187V34.038l6.777-9.576h-3.854s-4.411 6.222-4.536 6.407l-4.493-6.403-3.859-.004s6.752 9.507 6.778 9.55v10.473M273.581 44.477h3.182V24.462h-3.182zM350.617 44.477h3.191V24.462h-3.191zM176.104 44.477h3.19V27.644h6.015v-3.182h-15.224v3.182h6.019v16.833M363.871 44.477h3.182V27.644h6.019v-3.182h-15.224v3.182h6.023v16.833M423.398 35.358h6.7v-3.135h-6.7v-4.622h6.7v-3.139h-9.852v19.773h3.152v-8.877M402.403 29.62c1.158-1.261 2.764-1.955 4.523-1.955 3.689 0 6.36 2.918 6.36 6.939 0 1.934-.644 3.706-1.815 4.975-1.163 1.269-2.781 1.963-4.545 1.963-1.75 0-3.361-.694-4.523-1.963-1.172-1.274-1.811-3.041-1.811-4.975 0-1.943.639-3.715 1.811-4.984zm4.472 15.125c2.854 0 5.307-1.069 7.088-3.083 1.644-1.866 2.551-4.366 2.551-7.058 0-2.735-.92-5.265-2.585-7.122-1.768-1.972-4.196-3.02-7.003-3.02-2.726 0-5.192 1.077-6.951 3.033-1.683 1.87-2.607 4.395-2.607 7.109 0 2.683.907 5.192 2.56 7.066 1.746 1.981 4.217 3.075 6.947 3.075zm-66.406 26.758c.132-.351 3.374-9.067 3.593-9.689.257.614 3.755 9.331 3.879 9.689h-7.472zm5.54-19.108h-3.791l-13.144 34.17h5.592s3.651-9.5 3.717-9.668h11.776c.066.168 3.923 9.668 3.923 9.668h5.598l-13.671-34.17zM324.339 81.164h-13.348V52.592h-5.409v33.973h18.757v-5.401M184.974 61.814c.242.614 3.732 9.331 3.871 9.689h-7.465c.118-.351 3.36-9.067 3.594-9.689zm-5.694 15.083h11.768c.066.168 3.945 9.668 3.945 9.668h5.584l-13.664-34.17h-3.798l-13.144 34.17h5.599s3.652-9.5 3.71-9.668zm85.795 6.967v-6.623l-.227.154-.71.505c-3.206 2.327-6.741 3.6-9.954 3.6-3.315 0-6.154-1.127-8.218-3.286-2.064-2.144-3.14-5.123-3.14-8.584 0-3.352 1.127-6.396 3.191-8.585 2.057-2.188 4.889-3.388 7.985-3.388 3.278 0 6.323 1.032 9.865 3.315l.688.447.227.146-.264-6.616-.088-.036c-4.142-1.932-7.245-2.759-10.377-2.759-9.712 0-16.767 7.53-16.767 17.908 0 3.893 1.464 8.05 3.93 11.124 2.137 2.656 6.045 5.818 12.573 5.818 5.175 0 8.446-1.493 11.212-3.103l.074-.037m18.596-15.178c.153-.183 13.327-16.094 13.327-16.094h-6.814S279.097 66 278.636 66.564V52.592h-5.409v33.973h5.409v-15.31c.453.497 14.183 15.31 14.183 15.31h7.421l-16.569-17.879m131.373 12.478h-6.169V57.986h5.957c3.674 0 6.674 1.193 8.672 3.425 1.815 2.028 2.781 4.852 2.781 8.168 0 4.303-2.378 11.585-11.241 11.585zm12.873-23.061c-2.949-3.607-7.23-5.511-12.39-5.511h-12.06v33.973h12.104c4.757 0 8.885-1.815 11.922-5.24 2.744-3.111 4.325-7.392 4.325-11.746 0-4.26-1.419-8.453-3.901-11.476zM217.278 87.004c4.449 0 7.896-1.296 10.282-3.835 2.239-2.393 3.418-5.869 3.418-10.078V52.6h-5.409v19.679c0 3.462-.497 5.423-1.712 6.777-.827.907-2.759 2.444-6.492 2.444-2.415 0-4.361-.841-5.935-2.59-1.237-1.391-1.624-2.869-1.624-6.353V52.6l-5.401-.008v20.99c0 4.288 1.383 7.816 3.995 10.202 2.284 2.071 5.431 3.22 8.878 3.22m172.174-10.107c-.483-.607-19.131-24.297-19.131-24.297l-4.245-.008v33.973h5.145V62.428c.483.615 18.889 24.144 18.889 24.144h4.501V52.6h-5.159v24.297M180.896 130.529l-8.234-9.672h-2.351v13.858h2.619v-9.831l8.283 9.831h2.301v-13.858h-2.618v9.672M200.209 128.684h6.012v-2.093h-6.012v-3.641h6.28v-2.093h-8.958v13.858h9.097v-2.093h-6.419v-3.938M234.413 129.438l-3.65-8.581h-2.262l-3.63 8.551-3.453-8.551h-2.768l5.714 14.037h.873l4.385-10.278 4.365 10.278h.902l5.704-14.037h-2.737l-3.443 8.581M281.185 120.857h-12.191v2.093h7.578l-8.064 11.765h12.717v-2.093h-8.115l8.075-11.765M296.908 128.684h6.012v-2.093h-6.012v-3.641h6.28v-2.093h-8.958v13.858h9.097v-2.093h-6.419v-3.938M320.329 129.309l2.133-5.486 2.341 5.486h-4.474zm.754-8.452l-5.714 13.858h2.807l1.34-3.372h6.16l1.438 3.372h2.828l-6.121-13.858h-2.738zM345.217 120.857h-2.678v13.858h9.405v-2.093h-6.727v-11.765M368.282 129.309l2.132-5.486 2.341 5.486h-4.473zm.753-8.452l-5.713 13.858h2.807l1.339-3.372h6.16l1.438 3.372h2.828l-6.121-13.858h-2.738zM401.077 130.529l-8.234-9.672h-2.351v13.858h2.619v-9.831l8.283 9.831h2.301v-13.858h-2.618v9.672M426.804 131.288c-.896.889-2.085 1.334-3.567 1.334h-2.847v-9.672h2.759c1.527 0 2.742.433 3.645 1.299.903.867 1.354 2.047 1.354 3.542 0 1.442-.448 2.608-1.344 3.497zm.56-9.549c-1.124-.588-2.407-.882-3.849-.882h-5.803v13.858h5.645c1.487 0 2.807-.287 3.958-.862 1.15-.576 2.039-1.388 2.664-2.436s.936-2.25.936-3.606c0-1.33-.31-2.526-.931-3.591-.622-1.065-1.496-1.892-2.62-2.481zM170.172 115.348h261.363v-1.524H170.172zM48.57 24.641v48.918c0 11.504 8.597 44.961 47.853 61.388l.641.268.641-.268c39.238-16.421 47.83-49.88 47.83-61.388V24.641H48.57"/>
    <path fill="currentcolor" d="M58.992 57.038l-.002.002-.302-.154a14.529 14.529 0 00-7.363-2c-.221 0-.336.011-.481.026l-.145.014v18.633c0 .399 1.263 40.369 46.365 59.349 45.079-18.971 46.342-58.95 46.342-59.349v-18.61a14.544 14.544 0 00-7.99 1.986c-4.733 2.793-10.958 2.801-15.71.011-4.488-2.656-10.332-2.649-14.777-.027l-.132.066c-4.718 2.73-10.889 2.714-15.594-.053l-.082-.058c-4.432-2.594-10.261-2.588-14.693.019l-.213.125-.018-.008c-4.611 2.617-10.574 2.626-15.205.028"/>
    <path fill="currentcolor" d="M64.216 33.355c1.702-2.001 3.919-2.21 4.938-2.259 7.193-.224 10.844 5.166 10.684 9.474-.184 4.916-3.907 6.062-4.412 6.203 0 0-.064 1.066.771 2.502.053.104.214.23.058.507-.027.06-.166.325-.208.375a.499.499 0 00-.043.386c.088.316-.031.701-.27 1.14-.18.398.03 1.395.131 2.068.016.142-.082.147-.171.045-.46-.294-.809-1.213-.929-1.723-.87.23-1.879 1.515-2.222 2.265-.028.107-.216.217-.246-.019-.014-.059-.187-1.504 1.208-2.555-.707-.223-1.443.12-1.94.391-.036.036-.245.129-.089-.098.031-.05.436-.967 2.304-1.231.024-.065.416-.68.579-1.155-.05-.7-.413-1.578-.854-2.395-.069.004-1.4.116-2.339.84a.424.424 0 00-.179.347v.401c.013.057-.072.429-.551.583-.041.039-1.619.538-2.371.894-.039.034-.715.328-1.211 1.027-.105.112-.502.727-1.078.916a1.61 1.61 0 00-.669.398c-.223.222-.424.445-.614.563-.191.12-.614.58-.92 1.213-.05.088-.141.204-.146 0-.016-.259.017-.588.005-.594.182-.795.547-1.2.86-1.549-.123-.035-.104-.012-.234-.082-.578.07-2.379-.094-3.459.434-.081.041-.168.028-.081-.086.198-.273.603-1.32 3.036-1.375.028-.231-1.087-.776-1.654-.776-.178 0-.071-.098 0-.126.128-.058 1.199-.52 2.468.306.053-.038.91-.348 1.398-.388.586-.438 1.889-1.745 2.414-1.95a1.833 1.833 0 01.013-.636l-.063-.015c-.682-.963-.785-2.383-.756-3.166-1.395-.132-2.894-1.379-3.689-2.391-1.011-.067-3.027-.931-4.104-3.109-3.675 2.643-6.064 7.344-6.198 7.561-.087.068-.134.068-.199.018-.404-.73-.484-1.845-.349-2.193.715-1.944 2.409-4.62 4.253-6.998-.699-4.003 2.99-5.333 4.418-5.283 1.489.033 2.525.997 2.71 1.295"/>
    <path class="lead-color" d="M59.338 37.02a.596.596 0 01-.594-.599.595.595 0 111.192 0 .6.6 0 01-.598.599zm12.068-3.082s-.086 0-.011-.066c.084-.211.827-.532 1.313-.566-2.151-.856-3.554.191-3.516.073l-.018-.073s.291-.49 1.001-.982c-1.995 0-3.011 1.065-3.011 1.065l-.005-.147s.135-.409.773-1.017c-2.253.069-4.006 2.925-4.006 2.925s-.391-2.043-2.351-2.043c-1.431-.217-4.638 1.745-3.407 4.401-.569 1.061-2.452 2.707-4.057 6.034-.035.071.035.046 0 .116 1.449-2.06 3.541-4.703 5.67-5.998.215.166 1.442 3.357 4.268 3.538.319.232 1.727 2.592 4.238 2.36.029.265.027 2.535.457 3.273l.108.134c-.01-.07.016-.009.016-.009.201-.222 1.62-1.253 2.793-1.636 0 0 .506-1.562.847-1.96 2.441-.561 3.697-2.491 3.771-4.355.052-2.594-2.272-5.402-4.873-5.067z"/>
    <path fill="currentcolor" d="M94.59 33.355c1.7-2.001 3.921-2.21 4.937-2.259 7.193-.224 10.848 5.166 10.681 9.474-.181 4.916-3.904 6.062-4.411 6.203 0 0-.059 1.066.772 2.502.054.104.215.23.059.507-.022.06-.167.325-.205.375a.472.472 0 00-.049.386c.092.316-.032.701-.264 1.14-.183.398.027 1.395.124 2.068.024.142-.081.147-.167.045-.456-.294-.809-1.213-.923-1.723-.879.23-1.888 1.515-2.228 2.265-.032.107-.216.217-.252-.019-.014-.059-.185-1.504 1.215-2.555-.709-.223-1.443.12-1.943.391-.037.036-.246.129-.087-.098.03-.05.436-.967 2.303-1.231.024-.065.412-.68.58-1.155-.046-.7-.413-1.578-.853-2.395-.073.004-1.4.116-2.341.84a.43.43 0 00-.181.347v.401c.015.057-.066.429-.55.583-.045.039-1.62.538-2.366.894-.043.034-.72.328-1.215 1.027-.104.112-.501.727-1.075.916-.146.031-.449.175-.672.398-.221.222-.426.445-.616.563-.185.12-.617.58-.92 1.213-.046.088-.138.204-.142 0-.023-.259.012-.588.004-.594.185-.795.549-1.2.862-1.549-.124-.035-.109-.012-.237-.082-.573.07-2.377-.094-3.461.434-.081.041-.161.028-.081-.086.202-.273.605-1.32 3.036-1.375.032-.231-1.086-.776-1.651-.776-.174 0-.075-.098 0-.126.13-.058 1.199-.52 2.466.306.056-.038.911-.348 1.394-.388.592-.438 1.894-1.745 2.415-1.95-.005-.076-.048-.356.021-.636l-.069-.015c-.674-.963-.785-2.383-.756-3.166-1.395-.132-2.889-1.379-3.685-2.391-1.016-.067-3.027-.931-4.106-3.109-3.675 2.643-6.068 7.344-6.203 7.561-.079.068-.127.068-.195.018-.397-.73-.483-1.845-.35-2.193.712-1.944 2.412-4.62 4.254-6.998-.696-4.003 2.992-5.333 4.423-5.283 1.484.033 2.523.997 2.708 1.295"/>
    <path class="lead-color" d="M89.714 37.02a.6.6 0 11-.004-1.2.6.6 0 01.004 1.2zm12.061-3.082s-.082 0-.011-.066c.085-.211.837-.532 1.317-.566-2.152-.856-3.554.191-3.516.073l-.017-.073s.29-.49.997-.982c-1.997 0-3.005 1.065-3.005 1.065l-.012-.147s.136-.409.773-1.017c-2.249.069-4.003 2.925-4.003 2.925s-.39-2.043-2.353-2.043c-1.428-.217-4.634 1.745-3.404 4.401-.572 1.061-2.452 2.707-4.053 6.034-.036.071.032.046 0 .116 1.44-2.06 3.538-4.703 5.662-5.998.217.166 1.447 3.357 4.274 3.538.315.232 1.727 2.592 4.233 2.36.031.265.028 2.535.462 3.273l.107.134c-.011-.07.016-.009.016-.009.198-.222 1.621-1.253 2.791-1.636 0 0 .507-1.562.846-1.96 2.443-.561 3.695-2.491 3.776-4.355.048-2.594-2.279-5.402-4.88-5.067z"/>
    <path fill="currentcolor" d="M124.772 33.355c1.71-2.001 3.927-2.21 4.936-2.259 7.203-.224 10.85 5.166 10.688 9.474-.178 4.916-3.906 6.062-4.414 6.203 0 0-.059 1.066.772 2.502.054.104.221.23.059.507-.021.06-.167.325-.205.375a.507.507 0 00-.048.386c.092.316-.027.701-.265 1.14-.177.398.028 1.395.124 2.068.025.142-.075.147-.167.045-.458-.294-.809-1.213-.922-1.723-.874.23-1.889 1.515-2.226 2.265-.035.107-.218.217-.248-.019-.019-.059-.186-1.504 1.209-2.555-.707-.223-1.444.12-1.945.391-.033.036-.243.129-.086-.098.034-.05.437-.967 2.309-1.231.021-.065.412-.68.571-1.155-.043-.7-.404-1.578-.849-2.395-.068.004-1.4.116-2.339.84a.425.425 0 00-.184.347v.401c.017.057-.064.429-.544.583-.044.039-1.622.538-2.374.894-.038.034-.715.328-1.209 1.027-.108.112-.507.727-1.076.916-.146.031-.451.175-.672.398-.221.222-.426.445-.615.563-.191.12-.615.58-.922 1.213-.049.088-.135.204-.141 0-.021-.259.011-.588.006-.594.178-.795.539-1.2.857-1.549-.124-.035-.105-.012-.234-.082-.575.07-2.379-.094-3.461.434-.081.041-.162.028-.081-.086.202-.273.604-1.32 3.038-1.375.035-.231-1.09-.776-1.657-.776-.172 0-.067-.098 0-.126.13-.058 1.203-.52 2.466.306.059-.038.914-.348 1.4-.388.585-.438 1.891-1.745 2.414-1.95-.005-.076-.046-.356.019-.636l-.065-.015c-.68-.963-.785-2.383-.758-3.166-1.397-.132-2.892-1.379-3.685-2.391-1.017-.067-3.026-.931-4.111-3.109-3.668 2.643-6.064 7.344-6.193 7.561-.087.068-.138.068-.205.018-.397-.73-.48-1.845-.348-2.193.715-1.944 2.409-4.62 4.256-6.998-.698-4.003 2.989-5.333 4.422-5.283 1.483.033 2.525.997 2.703 1.295"/>
    <path class="lead-color" d="M119.897 37.02a.598.598 0 11.004-1.196.598.598 0 01-.004 1.196zm12.066-3.082s-.086 0-.01-.066c.081-.211.833-.532 1.316-.566-2.153-.856-3.561.191-3.518.073l-.016-.073s.291-.49.998-.982c-1.996 0-3.007 1.065-3.007 1.065l-.006-.147s.127-.409.769-1.017c-2.253.069-4.003 2.925-4.003 2.925s-.394-2.043-2.355-2.043c-1.433-.217-4.635 1.745-3.402 4.401-.572 1.061-2.455 2.707-4.057 6.034-.032.071.032.046 0 .116 1.449-2.06 3.539-4.703 5.668-5.998.213.166 1.443 3.357 4.267 3.538.316.232 1.732 2.592 4.241 2.36.029.265.024 2.535.461 3.273l.102.134c-.008-.07.017-.009.017-.009.199-.222 1.621-1.253 2.794-1.636 0 0 .502-1.562.845-1.96 2.441-.561 3.698-2.491 3.773-4.355.049-2.594-2.276-5.402-4.877-5.067zm-31.104 69.461l-.694.467.74.39c.474.25.769.747.769 1.297 0 .807-.657 1.464-1.465 1.464h-6.314a1.466 1.466 0 01-1.463-1.464c0-.548.295-1.045.77-1.298l.736-.39-.691-.465a8.868 8.868 0 00-4.972-1.54c-1.726 0-3.461.513-5.016 1.537-1.71 1.13-3.267 1.53-5.954 1.53-3.403 0-6.147-1.002-8.635-3.154l-.141-.122h-1.58l-.15.178a1.19 1.19 0 01-.915.416c-.641 0-1.163-.482-1.163-1.075 0-.592.522-1.074 1.163-1.074.36 0 .695.155.917.425l.15.182h1.892v-2.304h-1.889l-.15.178a1.19 1.19 0 01-.915.417c-.641 0-1.162-.483-1.162-1.076 0-.593.521-1.075 1.162-1.075.363 0 .698.154.92.424l.15.182h1.884v-2.304h-1.882l-.15.179c-.22.265-.555.417-.917.417-.639 0-1.159-.482-1.159-1.074 0-.594.52-1.077 1.159-1.077.365 0 .693.152.922.429l.15.18h1.877v-2.304h-1.871l-.15.177a1.198 1.198 0 01-.916.418c-.641 0-1.163-.482-1.163-1.076 0-.592.522-1.075 1.163-1.075.36 0 .695.155.917.426l.15.182h1.87v-2.304h-1.868l-.149.179a1.187 1.187 0 01-.916.417c-.64 0-1.161-.483-1.161-1.077 0-.592.521-1.074 1.161-1.074.361 0 .697.155.924.426l.15.179h1.859V85.39h-1.857l-.149.179a1.197 1.197 0 01-.921.416c-.639 0-1.159-.482-1.159-1.075s.52-1.076 1.159-1.076c.364 0 .7.156.923.427l.15.182h1.854V82.14h-1.855l-.15.177a1.2 1.2 0 01-.922.417c-.639 0-1.159-.482-1.159-1.075 0-.592.52-1.075 1.159-1.075.365 0 .701.154.924.423l.148.18 1.472.012 1.578-.794v20.861l.234.422c4.328 2.724 8.678 2.999 12.578.793 4.111-2.326 9.887-2.439 13.286 2.506h-1.611a.5.5 0 000 .999h5.071a.5.5 0 100-.999h-1.621c3.454-5.026 9.247-4.546 13.304-2.495 3.591 1.815 7.8 1.553 12.513-.778l.278-.448V80.405l1.579.794 1.469-.012.148-.178a1.2 1.2 0 01.927-.425c.639 0 1.159.483 1.159 1.075 0 .593-.52 1.075-1.159 1.075a1.21 1.21 0 01-.925-.419l-.15-.175h-1.853v2.303h1.852l.15-.181c.225-.272.563-.428.926-.428.639 0 1.159.483 1.159 1.076 0 .593-.52 1.075-1.159 1.075-.362 0-.699-.153-.925-.419l-.149-.176h-1.854v2.303h1.864l.15-.182c.221-.269.555-.423.917-.423.64 0 1.16.482 1.16 1.074 0 .594-.52 1.077-1.16 1.077-.355 0-.696-.155-.913-.417l-.15-.179h-1.868v2.304h1.869l.15-.181a1.19 1.19 0 01.922-.427c.64 0 1.159.483 1.159 1.075 0 .594-.519 1.076-1.159 1.076-.361 0-.696-.152-.92-.418l-.15-.177h-1.871v2.304h1.874l.15-.181a1.19 1.19 0 01.922-.428c.638 0 1.157.483 1.157 1.077 0 .592-.519 1.074-1.157 1.074-.362 0-.696-.152-.918-.417l-.15-.179h-1.878v2.304h1.886l.15-.182c.225-.274.552-.424.918-.424.639 0 1.16.482 1.16 1.075s-.521 1.076-1.16 1.076c-.359 0-.694-.153-.917-.418l-.149-.177h-1.888v2.304h1.891l.149-.182c.223-.27.558-.425.917-.425.641 0 1.162.482 1.162 1.074 0 .593-.521 1.075-1.162 1.075-.354 0-.69-.153-.921-.421l-.149-.173h-1.573l-.141.122c-2.489 2.152-5.234 3.154-8.635 3.154-2.686 0-4.244-.4-5.958-1.53-3.106-2.049-6.932-2.049-9.986.002"/>
    <path class="lead-color" d="M72.36 100.546c3.212 1.702 5.849 2.161 10.58-.296 5.193-2.697 10.541-.93 13.616 2.048v1.569c-3.785-4.903-9.846-4.717-14.198-2.256-3.491 1.975-7.4 1.757-11.321-.624V79.902l1.057-.532v21.034l.266.142"/>
    <path class="lead-color" d="M73.094 99.801V78.867l.13-.066c3.61.835 6.335.562 9.986-.983 4.417-1.868 8.905-1.272 13.346 1.769v21.369c-2.147-1.787-5.084-3.038-8.28-3.038-1.879 0-3.848.433-5.796 1.445-4.234 2.197-6.534 1.9-9.386.438m38.074.449c4.732 2.455 7.368 1.997 10.579.296l.266-.142V79.37l1.056.532.001 21.051c-4.3 2.06-8.114 2.278-11.339.647-4.278-2.162-10.337-2.704-14.176 2.266v-1.568c3.071-2.981 8.42-4.748 13.613-2.048"/>
    <path class="lead-color" d="M97.555 100.955V79.587c4.437-3.041 8.924-3.638 13.344-1.769 3.648 1.545 6.373 1.816 9.982.983l.131.067v20.933c-2.85 1.461-5.151 1.76-9.382-.438-5.268-2.734-10.671-1.247-14.075 1.592M121.234 75.031l-5.651-4.269-5.653 4.269 2.166-6.817-5.954-4.291h7.253l2.188-6.858 2.188 6.858h7.255l-5.954 4.291 2.162 6.817M84.15 75.091l-5.654-4.273-5.654 4.273 2.167-6.818-5.954-4.296h7.255l2.186-6.857 2.186 6.857h7.257l-5.954 4.296 2.165 6.818M91.396 128.6l2.167-6.817-5.957-4.294h7.257l2.186-6.857 2.186 6.857h7.256l-5.956 4.294 2.166 6.817-5.652-4.27-5.653 4.27"/>
  </g>
</svg>