<svg xmlns="http://www.w3.org/2000/svg" xmlns:xlink="http://www.w3.org/1999/xlink" viewBox="0 0 339 325">
<style type="text/css"><![CDATA[.lead-color{fill: var(--svg-lead-color, #fff);}
]]></style>
  <defs>
    <path id="a" d="M.06.208h338.176V324.94H.06z"/>
  </defs>
  <g fill="none" fill-rule="evenodd">
    <mask id="b" class="lead-color">
      <use xlink:href="#a"/>
    </mask>
    <path fill="currentcolor" mask="url(#b)" d="M0 48.608L48.4.208h289.836v276.297L289.741 325H.189L0 48.608"/>
    <path class="lead-color" d="M51.573 249.133h1.317v-8.875h3.171v-1.315H48.4v1.315h3.173v8.875M56.758 245.099c.162-1.062.711-1.657 1.625-1.657.847 0 1.373.643 1.414 1.657h-3.039zm1.598-2.812c-1.664 0-2.819 1.377-2.819 3.409 0 1.852 1.046 3.568 2.928 3.568 1.02 0 1.68-.253 2.404-.789v-1.283c-.696.507-1.384.805-2.109.805-1.156 0-1.84-.692-2.028-2.016h4.247c0-2.482-1.023-3.694-2.623-3.694zM72.534 238.943h-1.25l-2.54 7.023-2.525-7.023h-1.318l3.711 10.277h.255l3.038-8.334 3.007 8.334h.258l3.722-10.277h-1.303l-2.503 7.023-2.552-7.023M85.521 249.133v-4.107c0-1.839-.875-2.739-2.054-2.739-.673 0-1.347.377-1.802 1.017h-.026v-4.361h-1.197v10.19h1.197v-4.813c.562-.698.979-.971 1.506-.971.722 0 1.183.645 1.183 1.627v4.157h1.193m5.005-1.362c-.324.345-.672.552-1.048.552-.497 0-.859-.387-.859-.94 0-.79.885-1.182 1.907-1.569v1.957zm-1.062-2.269c-.968.388-2.055.789-2.055 2.12 0 .867.589 1.642 1.475 1.642.553 0 1.104-.225 1.628-.686.11.477.391.686.913.686.377 0 .605-.117 1.153-.522v-.806c-.264.226-.506.36-.628.36-.148 0-.229-.09-.229-.345v-3.449c0-1.523-.968-2.215-2.19-2.215-.87 0-1.533.299-2.003.914v1.451c.58-.766 1.249-1.106 1.909-1.106.725 0 1.089.34 1.089 1.177v.36l-1.062.419zm4.977-3.076v6.707h1.193v-3.512c0-1.151.646-2.06 1.465-2.06.283 0 .752.269 1.115.654l.631-1.149c-.496-.523-.951-.779-1.438-.779-.562 0-1.138.498-1.746 1.676h-.027v-1.537h-1.193m6.614 2.673c.159-1.062.709-1.657 1.624-1.657.847 0 1.369.643 1.409 1.657h-3.033zm1.596-2.812c-1.666 0-2.819 1.377-2.819 3.409 0 1.852 1.048 3.568 2.929 3.568 1.021 0 1.678-.253 2.405-.789v-1.283c-.701.507-1.384.805-2.109.805-1.156 0-1.843-.692-2.031-2.016h4.248c0-2.482-1.021-3.694-2.623-3.694zM116.831 238.943h-1.251l-2.539 7.023-2.526-7.023h-1.318l3.708 10.277h.258l3.034-8.334 3.012 8.334h.254l3.725-10.277h-1.306l-2.499 7.023-2.552-7.023M126.579 247.771c-.323.345-.676.552-1.049.552-.499 0-.862-.387-.862-.94 0-.79.89-1.182 1.911-1.569v1.957zm-1.06-2.269c-.97.388-2.059.789-2.059 2.12 0 .867.59 1.642 1.477 1.642.555 0 1.104-.225 1.626-.686.105.477.391.686.915.686.374 0 .604-.117 1.157-.522v-.806c-.268.226-.508.36-.633.36-.15 0-.228-.09-.228-.345v-3.449c0-1.523-.967-2.215-2.19-2.215-.875 0-1.534.299-2 .914v1.451c.574-.766 1.247-1.106 1.908-1.106.723 0 1.087.34 1.087 1.177v.36l-1.06.419zm9.944 3.631v-4.141c0-1.836-.915-2.705-2.055-2.705-.673 0-1.344.377-1.802 1.017h-.026v-.878h-1.197v6.707h1.197v-4.813c.563-.698.979-.971 1.504-.971.727 0 1.18.645 1.18 1.627v4.157h1.199m5.003-1.362c-.321.345-.669.552-1.048.552-.496 0-.861-.387-.861-.94 0-.79.892-1.182 1.909-1.569v1.957zm-1.06-2.269c-.966.388-2.058.789-2.058 2.12 0 .867.593 1.642 1.48 1.642.551 0 1.101-.225 1.626-.686.107.477.39.686.91.686.38 0 .606-.117 1.159-.522v-.806c-.272.226-.508.36-.632.36-.147 0-.228-.09-.228-.345v-3.449c0-1.523-.968-2.215-2.188-2.215-.878 0-1.534.299-2.005.914v1.451c.579-.766 1.252-1.106 1.909-1.106.724 0 1.087.34 1.087 1.177v.36l-1.06.419zm9.948 3.631v-4.141c0-1.836-.915-2.705-2.06-2.705-.671 0-1.341.377-1.799 1.017h-.029v-.878h-1.195v6.707h1.195v-4.813c.565-.698.986-.971 1.508-.971.727 0 1.181.645 1.181 1.627v4.157h1.199m4.36-3.121c-.732 0-1.214-.496-1.214-1.228 0-.657.541-1.207 1.197-1.207.633 0 1.167.536 1.167 1.178 0 .735-.48 1.257-1.15 1.257zm-.327 3.452c.739 0 1.978.222 1.978 1.073 0 .612-.619.97-1.668.97-1.087 0-1.677-.358-1.677-1.032 0-.594.562-1.011 1.367-1.011zm3.159-7.038h-2.482c-1.63 0-2.637.878-2.637 2.313 0 .494.11.914.32 1.258.229.36.567.645 1.014.853v.033c-.584.15-.959.524-.959.955 0 .299.188.569.606.851-1.047.283-1.519.867-1.519 1.848 0 1.18 1.157 2.029 2.78 2.029 1.79 0 2.851-.806 2.851-2.135 0-.848-.454-1.577-1.746-1.863-1.213-.266-1.842-.491-1.842-.863 0-.792 1.64-.316 2.443-1.273.284-.317.567-.961.567-1.51 0-.57-.161-.945-.634-1.468h1.238v-1.028zm4.261 5.345c-.319.345-.669.552-1.046.552-.496 0-.863-.387-.863-.94 0-.79.889-1.182 1.909-1.569v1.957zm-1.058-2.269c-.97.388-2.057.789-2.057 2.12 0 .867.591 1.642 1.48 1.642.548 0 1.098-.225 1.623-.686.107.477.394.686.915.686.376 0 .604-.117 1.157-.522v-.806c-.273.226-.511.36-.635.36-.146 0-.226-.09-.226-.345v-3.449c0-1.523-.97-2.215-2.193-2.215-.872 0-1.53.299-2 .914v1.451c.577-.766 1.252-1.106 1.907-1.106.724 0 1.087.34 1.087 1.177v.36l-1.058.419zm12.151-2.016c1.198 0 2.061.938 2.061 2.241 0 1.449-.797 2.344-2.061 2.344-1.156 0-1.95-.943-1.95-2.361 0-1.286.823-2.224 1.95-2.224zm.014 5.778c1.931 0 3.266-1.433 3.266-3.554 0-1.985-1.373-3.423-3.266-3.423-1.804 0-3.185 1.496-3.185 3.423 0 2.061 1.331 3.554 3.185 3.554zM183.861 249.133v-8.875h3.175v-1.315h-7.66v1.315h3.171v8.875h1.314M189.759 247.771c-.319.345-.667.552-1.049.552-.497 0-.859-.387-.859-.94 0-.79.888-1.182 1.908-1.569v1.957zm-1.058-2.269c-.968.388-2.055.789-2.055 2.12 0 .867.592 1.642 1.477 1.642.55 0 1.101-.225 1.627-.686.104.477.39.686.914.686.372 0 .606-.117 1.153-.522v-.806c-.27.226-.509.36-.627.36-.154 0-.23-.09-.23-.345v-3.449c0-1.523-.973-2.215-2.193-2.215-.878 0-1.529.299-2.003.914v1.451c.578-.766 1.255-1.106 1.909-1.106.724 0 1.086.34 1.086 1.177v.36l-1.058.419zm14.072 3.631v-4.211c0-1.583-.777-2.635-1.998-2.635-.867 0-1.497.555-2.02 1.212-.408-.789-1.035-1.212-1.802-1.212-.569 0-1.146.333-1.76 1.017v-.878h-1.198v6.707h1.198v-4.871c.5-.64.9-.853 1.506-.853.593 0 1.087.464 1.087 1.555v4.169h1.191v-4.871c.434-.495.959-.866 1.345-.853.692 0 1.258.554 1.258 1.567v4.157h1.193m5.434-1.362c-.324.345-.672.552-1.054.552-.494 0-.852-.387-.852-.94 0-.79.886-1.182 1.906-1.569v1.957zm-1.068-2.269c-.964.388-2.05.789-2.05 2.12 0 .867.587 1.642 1.477 1.642.554 0 1.101-.225 1.632-.686.099.477.386.686.909.686.372 0 .606-.117 1.156-.522v-.806c-.273.226-.512.36-.635.36-.149 0-.225-.09-.225-.345v-3.449c0-1.523-.973-2.215-2.193-2.215-.866 0-1.534.299-2 .914v1.451c.575-.766 1.247-1.106 1.91-1.106.72 0 1.087.34 1.087 1.177v.36l-1.068.419zM216.402 242.426l-2.671 3.284 3.019 3.423h1.62l-3.118-3.423 2.58-3.284h-1.43M212.484 249.133h1.195v-10.19h-1.195zM220.735 239.6c-.39 0-.715.36-.715.793 0 .432.325.792.715.792.386 0 .711-.36.711-.792 0-.433-.325-.793-.711-.793M220.129 249.133h1.196v-6.707h-1.196zM237.805 249.133v-10.19h-1.219l-3.052 4.184-3.041-4.184h-1.236v10.19h1.317v-7.93h.028l2.818 3.94h.225l2.815-3.94h.024v7.93h1.321M243.408 247.771c-.32.345-.668.552-1.049.552-.493 0-.86-.387-.86-.94 0-.79.888-1.182 1.909-1.569v1.957zm-1.064-2.269c-.963.388-2.055.789-2.055 2.12 0 .867.597 1.642 1.482 1.642.55 0 1.101-.225 1.622-.686.109.477.396.686.914.686.381 0 .611-.117 1.158-.522v-.806c-.27.226-.509.36-.627.36-.15 0-.23-.09-.23-.345v-3.449c0-1.523-.968-2.215-2.193-2.215-.878 0-1.529.299-2.003.914v1.451c.578-.766 1.251-1.106 1.909-1.106.729 0 1.087.34 1.087 1.177v.36l-1.064.419zM251.61 242.426l-2.673 3.284 3.025 3.423h1.608l-3.113-3.423 2.573-3.284h-1.42M247.684 249.133h1.2v-10.19h-1.2zM257.927 247.771c-.324.345-.672.552-1.049.552-.495 0-.862-.387-.862-.94 0-.79.886-1.182 1.911-1.569v1.957zm-2.998-4.57v1.451c.576-.766 1.253-1.106 1.911-1.106.725 0 1.087.34 1.087 1.177v.36l-1.063.419c-.968.388-2.06.789-2.06 2.12 0 .867.597 1.642 1.482 1.642.554 0 1.101-.225 1.627-.686.104.477.391.686.914.686.374 0 .606-.117 1.155-.522v-.806c-.267.226-.511.36-.634.36-.147 0-.225-.09-.225-.345v-3.449c0-1.523-.971-2.215-2.193-2.215-.871 0-1.529.299-2.001.914zm12.313 5.932v-6.707h-1.198v4.792c-.386.613-.9.944-1.44.944-.814 0-1.233-.54-1.233-1.477v-4.259h-1.196v4.167c0 1.703.857 2.671 2.084 2.671.589 0 1.29-.385 1.785-.985v.854h1.198m2.946-6.707v6.707h1.2v-3.512c0-1.151.644-2.06 1.468-2.06.278 0 .751.269 1.113.654l.628-1.149c-.495-.523-.952-.779-1.44-.779-.561 0-1.139.498-1.745 1.676h-.024v-1.537h-1.2m9.038 5.345c-.324.345-.673.552-1.044.552-.5 0-.862-.387-.862-.94 0-.79.885-1.182 1.906-1.569v1.957zm-1.059-2.269c-.973.388-2.06.789-2.06 2.12 0 .867.593 1.642 1.48 1.642.557 0 1.101-.225 1.625-.686.104.477.39.686.921.686.367 0 .599-.117 1.148-.522v-.806c-.267.226-.511.36-.63.36-.151 0-.229-.09-.229-.345v-3.449c0-1.523-.966-2.215-2.188-2.215-.872 0-1.534.299-2.001.914v1.451c.57-.766 1.248-1.106 1.911-1.106.719 0 1.082.34 1.082 1.177v.36l-1.059.419zm10.374 3.631v-6.707h-1.196v4.792c-.386.613-.902.944-1.435.944-.821 0-1.24-.54-1.24-1.477v-4.259h-1.196v4.167c0 1.703.857 2.671 2.084 2.671.594 0 1.29-.385 1.787-.985v.854h1.196M123.683 241.433h3.454v-.683h-3.454zM186.97 241.433h3.459v-.683h-3.459zM94.346 190.368h-6.999v-4.9h6.551v-2.933h-6.551v-4.729h6.785v-2.929h-9.717v18.419l9.931.004v-2.932M179.069 177.806v-2.929h-9.713v18.419l9.927.004v-2.932h-7.003v-4.9h6.559v-2.933h-6.559v-4.729h6.789M68.075 185.551h8.376v7.745h2.936v-18.419h-2.936v7.75h-8.376v-7.75h-2.936v18.419h2.936v-7.745M112.107 193.534c2.404 0 4.281-.702 5.575-2.083 1.21-1.293 1.853-3.186 1.853-5.46v-11.114h-2.937v10.67c0 1.877-.269 2.948-.924 3.678-.449.496-1.5 1.325-3.524 1.325-1.305 0-2.357-.46-3.218-1.404-.67-.758-.877-1.56-.877-3.44v-10.825l-2.932-.004v11.372c0 2.329.75 4.242 2.167 5.535 1.242 1.127 2.944 1.75 4.817 1.75m27.104-.238v-18.419h-2.797v13.174c-.258-.33-10.372-13.174-10.372-13.174h-2.297v18.419h2.789v-13.09c.266.333 10.237 13.09 10.237 13.09h2.44m26.478-18.419h-2.952s-4.44 11.575-4.575 11.924l-4.591-11.924h-2.976l7.17 18.574.909.004 7.015-18.578m25.791 5.266c0 .769-.21 1.365-.619 1.789-.468.476-1.218.718-2.21.718h-1.162v-4.952h1.162c1.913 0 2.81.754 2.829 2.377v.068zm2.833 13.153h3.516l-.484-.738c-.968-1.484-1.369-2.095-2.008-3.25-.559-1.015-1.131-2.067-1.71-2.92-.516-.754-1.012-1.325-1.551-1.793 1.551-.877 2.408-2.441 2.408-4.421 0-1.599-.524-2.94-1.516-3.872-.984-.933-2.384-1.425-4.055-1.425h-4.361V193.3l2.937-.004v-7.721h.647c1.004 0 1.876.281 3.975 3.912l2.202 3.809zm10.825-15.49c1.23 0 2.42.591 3.523 1.753l.421.445.131.135v-3.849l-.036-.024-.095-.076c-1.163-.856-2.46-1.313-3.762-1.313-1.523 0-2.825.48-3.745 1.381-.929.905-1.421 2.182-1.421 3.686 0 2.552 1.774 3.964 3.599 5.194l.445.302.817.563c.472.337.801.607 1.071.873.679.655.992 1.302.992 2.036 0 .746-.627 1.932-2.297 1.932-1.445 0-2.857-.869-3.96-2.448l-.579-.825.091 4.459.024.024c1.4 1.171 2.884 1.718 4.682 1.718 1.341 0 2.563-.523 3.448-1.472.869-.94 1.357-2.242 1.357-3.674 0-3.027-1.865-4.484-3.611-5.619l-1.27-.801a10.432 10.432 0 01-1.071-.782c-.678-.587-.976-1.146-.976-1.821 0-1.06.917-1.797 2.222-1.797m37.77 15.498h2.933v-9.614c.027-.04 6.237-8.813 6.237-8.813h-3.547s-4.059 5.726-4.174 5.897l-4.135-5.893-3.551-.004s6.213 8.75 6.237 8.789v9.638M144.024 193.296h2.929v-18.419h-2.929zM214.919 193.296h2.936v-18.419h-2.936zM54.318 193.296h2.937v-15.49h5.535v-2.929H48.779v2.929h5.539v15.49M227.116 193.296h2.928v-15.49h5.54v-2.929h-14.011v2.929h5.543v15.49M281.897 184.904h6.166v-2.885h-6.166v-4.253h6.166v-2.889h-9.067v18.197h2.901v-8.17M262.576 179.624c1.066-1.16 2.544-1.799 4.163-1.799 3.394 0 5.852 2.685 5.852 6.385 0 1.78-.592 3.411-1.67 4.579-1.07 1.168-2.559 1.807-4.182 1.807-1.611 0-3.093-.639-4.163-1.807-1.078-1.172-1.666-2.799-1.666-4.579 0-1.787.588-3.418 1.666-4.586zm4.116 13.92c2.626 0 4.884-.984 6.523-2.838 1.513-1.717 2.348-4.018 2.348-6.496 0-2.516-.847-4.845-2.38-6.554-1.627-1.815-3.861-2.779-6.444-2.779-2.509 0-4.778.992-6.398 2.791-1.548 1.721-2.398 4.045-2.398 6.542 0 2.47.834 4.779 2.356 6.504 1.607 1.822 3.88 2.83 6.393 2.83zm-61.112 24.624c.121-.323 3.105-8.344 3.307-8.917.236.566 3.455 8.587 3.569 8.917h-6.876zm5.098-17.585h-3.488l-12.097 31.446h5.146l3.421-8.897h10.837c.061.155 3.61 8.897 3.61 8.897h5.152l-12.581-31.446zM190.736 227.058h-12.285v-26.293h-4.977v31.264h17.262v-4.971M62.481 209.251c.223.566 3.435 8.587 3.563 8.917h-6.87c.108-.323 3.092-8.344 3.307-8.917zm-5.24 13.881h10.83c.061.155 3.63 8.897 3.63 8.897h5.139l-12.574-31.446H60.77l-12.096 31.446h5.153s3.361-8.742 3.414-8.897zm78.955 6.412v-6.095l-.209.141-.653.465c-2.95 2.141-6.203 3.313-9.16 3.313-3.051 0-5.664-1.037-7.563-3.024-1.899-1.973-2.889-4.714-2.889-7.9 0-3.084 1.037-5.886 2.936-7.9 1.893-2.014 4.499-3.118 7.348-3.118 3.017 0 5.819.949 9.079 3.051l.633.411.208.134-.242-6.088-.081-.034c-3.812-1.778-6.667-2.539-9.55-2.539-8.937 0-15.43 6.93-15.43 16.481 0 3.583 1.347 7.408 3.617 10.237 1.966 2.445 5.563 5.354 11.57 5.354 4.762 0 7.773-1.374 10.318-2.856l.068-.033m17.114-13.968l12.264-14.811h-6.27s-10.204 12.339-10.628 12.858v-12.858h-4.977v31.264h4.977v-14.09c.417.458 13.053 14.09 13.053 14.09h6.829l-15.248-16.453m120.9 11.482h-5.678v-21.329h5.483c3.38 0 6.142 1.098 7.98 3.152 1.671 1.866 2.56 4.465 2.56 7.516 0 3.96-2.189 10.661-10.345 10.661zm11.846-21.222c-2.714-3.32-6.653-5.071-11.402-5.071h-11.099v31.264h11.14c4.378 0 8.176-1.67 10.971-4.822 2.526-2.863 3.98-6.802 3.98-10.81 0-3.92-1.306-7.779-3.59-10.561zM92.21 232.433c4.094 0 7.267-1.192 9.462-3.529 2.061-2.202 3.146-5.401 3.146-9.274v-18.858H99.84v18.111c0 3.185-.458 4.99-1.576 6.236-.76.835-2.539 2.249-5.974 2.249-2.222 0-4.014-.774-5.462-2.384-1.138-1.279-1.495-2.64-1.495-5.846v-18.366l-4.97-.007v19.316c0 3.947 1.273 7.193 3.677 9.389 2.101 1.906 4.997 2.963 8.17 2.963m158.447-9.301c-.444-.559-17.605-22.36-17.605-22.36l-3.906-.007v31.264h4.735v-22.212l17.383 22.219h4.142v-31.264h-4.749v22.36M58.728 272.489l-7.577-8.902h-2.164v12.754h2.41v-9.047l7.623 9.047h2.118v-12.754h-2.41v8.902M76.502 270.79h5.532v-1.926h-5.532v-3.35h5.779v-1.927h-8.243v12.754h8.371v-1.926h-5.907v-3.625M107.979 271.484l-3.359-7.897h-2.082l-3.341 7.87-3.177-7.87h-2.547l5.258 12.918h.804l4.035-9.458 4.017 9.458h.83l5.25-12.918h-2.52l-3.168 7.897M151.022 263.587h-11.219v1.927h6.974l-7.422 10.827h11.704v-1.926h-7.468l7.431-10.828M165.492 270.79h5.532v-1.926h-5.532v-3.35h5.779v-1.927h-8.244v12.754h8.372v-1.926h-5.907v-3.625M187.046 271.365l1.962-5.049 2.155 5.049h-4.117zm.693-7.778l-5.258 12.754h2.583l1.233-3.104h5.669l1.324 3.104h2.602l-5.633-12.754h-2.52zM209.949 263.587h-2.464v12.754h8.655v-1.926h-6.191v-10.828M231.175 271.365l1.963-5.049 2.154 5.049h-4.117zm.693-7.778l-5.257 12.754h2.583l1.233-3.104h5.668l1.324 3.104h2.602l-5.632-12.754h-2.521zM261.356 272.489l-7.578-8.902h-2.163v12.754h2.41v-9.047l7.623 9.047h2.118v-12.754h-2.41v8.902M285.032 273.186c-.825.819-1.918 1.229-3.282 1.229h-2.621v-8.901h2.539c1.405 0 2.524.398 3.355 1.195.83.798 1.246 1.884 1.246 3.259 0 1.328-.413 2.4-1.237 3.218zm.515-8.787c-1.034-.541-2.215-.812-3.542-.812h-5.34v12.754h5.194c1.37 0 2.584-.265 3.643-.794 1.059-.53 1.876-1.277 2.452-2.242.575-.964.862-2.071.862-3.318 0-1.224-.287-2.325-.858-3.305a5.894 5.894 0 00-2.411-2.283zM48.859 258.518h240.527v-1.403H48.859zM120.676 48.674v49.058c0 11.537 8.621 45.09 47.99 61.564l.643.269.642-.269c39.351-16.468 47.968-50.023 47.968-61.564V48.674h-97.243"/>
    <path fill="currentcolor" d="M131.128 81.164l-.003.002-.302-.155a14.57 14.57 0 00-7.385-2.006c-.221 0-.336.011-.482.026l-.146.014v18.687c0 .4 1.268 40.485 46.499 59.519 45.209-19.025 46.476-59.119 46.476-59.519V79.068a14.587 14.587 0 00-8.013 1.992c-4.747 2.801-10.99 2.809-15.756.011-4.501-2.663-10.362-2.656-14.819-.027l-.133.066c-4.732 2.738-10.92 2.722-15.639-.053l-.082-.058c-4.445-2.602-10.29-2.596-14.735.019l-.213.126-.018-.009c-4.625 2.624-10.605 2.634-15.249.029"/>
    <path fill="currentcolor" d="M136.367 57.412c1.707-2.007 3.93-2.217 4.952-2.265 7.213-.225 10.875 5.18 10.714 9.501-.184 4.93-3.917 6.08-4.425 6.22 0 0-.063 1.07.774 2.51.053.104.215.231.058.508a3.34 3.34 0 01-.208.376.494.494 0 00-.043.387c.088.318-.032.704-.271 1.144-.181.4.03 1.399.131 2.074.016.142-.082.148-.171.045-.462-.295-.812-1.216-.933-1.727-.872.23-1.884 1.518-2.227 2.271-.029.107-.217.217-.248-.019-.013-.06-.186-1.509 1.212-2.562-.709-.225-1.447.12-1.945.392-.037.035-.246.128-.089-.099.031-.05.437-.97 2.31-1.235.024-.065.417-.682.58-1.158-.05-.702-.414-1.582-.856-2.402-.069.004-1.404.116-2.345.843a.421.421 0 00-.18.347v.403c.013.057-.072.431-.552.585-.042.039-1.625.54-2.378.897-.039.033-.717.328-1.215 1.029-.105.112-.503.729-1.081.918a1.636 1.636 0 00-.671.399c-.224.224-.426.447-.616.566-.191.12-.616.581-.923 1.216-.05.088-.14.204-.146 0-.016-.26.018-.59.006-.595.182-.798.547-1.204.861-1.554-.123-.035-.104-.012-.234-.083-.58.071-2.386-.093-3.469.436-.082.041-.168.028-.082-.087.199-.273.605-1.323 3.045-1.378.029-.232-1.09-.778-1.658-.778-.178 0-.072-.099 0-.127.128-.058 1.202-.521 2.475.307.053-.038.912-.349 1.402-.39.588-.438 1.895-1.749 2.421-1.954a1.85 1.85 0 01.013-.639l-.063-.015c-.685-.965-.787-2.39-.759-3.174-1.399-.133-2.901-1.384-3.699-2.399-1.014-.067-3.036-.933-4.115-3.117-3.686 2.649-6.082 7.365-6.217 7.582-.086.068-.134.068-.199.018-.406-.732-.486-1.85-.35-2.199.717-1.95 2.416-4.633 4.265-7.018-.701-4.015 2.998-5.348 4.431-5.298 1.493.032 2.532.999 2.718 1.298"/>
    <path class="lead-color"  d="M131.474 61.088a.598.598 0 01-.595-.601.597.597 0 111.196 0c0 .331-.27.601-.601.601zm12.103-3.091s-.086 0-.01-.067c.083-.211.829-.533 1.316-.566-2.158-.859-3.564.191-3.526.073l-.018-.073s.292-.493 1.003-.985c-2 0-3.019 1.067-3.019 1.067l-.005-.147s.135-.41.775-1.02c-2.259.069-4.017 2.934-4.017 2.934s-.393-2.049-2.358-2.049c-1.435-.218-4.652 1.75-3.417 4.413-.571 1.065-2.459 2.715-4.069 6.052-.035.07.036.046 0 .116 1.453-2.067 3.551-4.716 5.687-6.015.215.166 1.446 3.367 4.28 3.548.32.233 1.732 2.6 4.25 2.367.03.265.027 2.542.458 3.282l.108.135c-.009-.071.017-.01.017-.01.201-.223 1.624-1.256 2.801-1.64 0 0 .507-1.567.849-1.966 2.449-.562 3.708-2.498 3.783-4.367.051-2.602-2.28-5.418-4.888-5.082z"/>
    <path fill="currentcolor" d="M166.828 57.412c1.704-2.007 3.932-2.217 4.951-2.265 7.213-.225 10.879 5.18 10.711 9.501-.181 4.93-3.914 6.08-4.423 6.22 0 0-.059 1.07.774 2.51.054.104.216.231.059.508a3.031 3.031 0 01-.205.376.475.475 0 00-.049.387c.092.318-.032.704-.265 1.144-.184.4.027 1.399.124 2.074.025.142-.081.148-.167.045-.458-.295-.812-1.216-.925-1.727-.882.23-1.894 1.518-2.235 2.271-.033.107-.217.217-.253-.019-.014-.06-.185-1.509 1.219-2.562-.712-.225-1.448.12-1.949.392-.037.035-.247.128-.087-.099.03-.05.437-.97 2.309-1.235.024-.065.414-.682.582-1.158-.046-.702-.414-1.582-.855-2.402-.073.004-1.404.116-2.349.843a.432.432 0 00-.181.347v.403c.015.057-.066.431-.552.585-.044.039-1.624.54-2.372.897-.043.033-.722.328-1.219 1.029-.104.112-.502.729-1.078.918-.146.032-.45.176-.673.399-.222.224-.428.447-.619.566-.185.12-.618.581-.922 1.216-.046.088-.138.204-.142 0-.023-.26.012-.59.004-.595.185-.798.55-1.204.864-1.554-.124-.035-.109-.012-.238-.083-.575.071-2.383-.093-3.471.436-.081.041-.161.028-.081-.087.203-.273.607-1.323 3.045-1.378.032-.232-1.089-.778-1.656-.778-.174 0-.075-.099 0-.127.13-.058 1.203-.521 2.473.307.057-.038.914-.349 1.399-.39.593-.438 1.899-1.749 2.421-1.954-.004-.077-.048-.357.021-.639l-.069-.015c-.676-.965-.787-2.39-.758-3.174-1.399-.133-2.898-1.384-3.696-2.399-1.018-.067-3.035-.933-4.117-3.117-3.686 2.649-6.086 7.365-6.221 7.582-.08.068-.127.068-.196.018-.398-.732-.484-1.85-.351-2.199.715-1.95 2.419-4.633 4.267-7.018-.698-4.015 3-5.348 4.435-5.298 1.488.032 2.531.999 2.716 1.298"/>
    <path class="lead-color" d="M161.938 61.088a.601.601 0 11-.005-1.2.601.601 0 01.005 1.2zm12.096-3.091s-.083 0-.011-.067c.085-.211.838-.533 1.32-.566-2.158-.859-3.564.191-3.526.073l-.017-.073s.291-.493 1-.985c-2.003 0-3.014 1.067-3.014 1.067l-.012-.147s.137-.41.775-1.02c-2.255.069-4.015 2.934-4.015 2.934s-.39-2.049-2.358-2.049c-1.433-.218-4.648 1.75-3.415 4.413-.573 1.065-2.459 2.715-4.064 6.052-.037.07.032.046 0 .116 1.444-2.067 3.548-4.716 5.678-6.015.218.166 1.452 3.367 4.287 3.548.315.233 1.731 2.6 4.244 2.367.031.265.029 2.542.464 3.282l.107.135c-.011-.071.016-.01.016-.01.199-.223 1.626-1.256 2.799-1.64 0 0 .509-1.567.848-1.966 2.451-.562 3.706-2.498 3.788-4.367.048-2.602-2.286-5.418-4.894-5.082z"/>
    <path fill="currentColor" d="M197.096 57.412c1.715-2.007 3.939-2.217 4.951-2.265 7.223-.225 10.881 5.18 10.718 9.501-.178 4.93-3.917 6.08-4.426 6.22 0 0-.059 1.07.774 2.51.054.104.222.231.06.508a3.175 3.175 0 01-.206.376.515.515 0 00-.049.387c.092.318-.027.704-.265 1.144-.178.4.027 1.399.125 2.074.024.142-.076.148-.168.045-.46-.295-.812-1.216-.925-1.727-.877.23-1.894 1.518-2.232 2.271-.035.107-.219.217-.249-.019-.019-.06-.187-1.509 1.212-2.562-.709-.225-1.448.12-1.951.392-.032.035-.243.128-.086-.099.035-.05.438-.97 2.316-1.235.021-.065.413-.682.573-1.158-.043-.702-.406-1.582-.852-2.402-.068.004-1.404.116-2.346.843a.425.425 0 00-.184.347v.403c.017.057-.064.431-.546.585-.043.039-1.626.54-2.381.897-.038.033-.716.328-1.212 1.029-.108.112-.508.729-1.079.918a1.613 1.613 0 00-.674.399c-.221.224-.427.447-.616.566-.192.12-.617.581-.926 1.216-.048.088-.135.204-.14 0-.022-.26.011-.59.005-.595.179-.798.541-1.204.86-1.554-.124-.035-.105-.012-.235-.083-.576.071-2.386-.093-3.471.436-.081.041-.162.028-.081-.087.203-.273.606-1.323 3.046-1.378.035-.232-1.093-.778-1.661-.778-.173 0-.068-.099 0-.127.13-.058 1.207-.521 2.473.307.059-.038.917-.349 1.404-.39.587-.438 1.896-1.749 2.421-1.954-.006-.077-.046-.357.019-.639l-.065-.015c-.682-.965-.787-2.39-.76-3.174-1.402-.133-2.9-1.384-3.696-2.399-1.02-.067-3.035-.933-4.123-3.117-3.679 2.649-6.081 7.365-6.211 7.582-.086.068-.138.068-.205.018-.398-.732-.482-1.85-.349-2.199.716-1.95 2.415-4.633 4.268-7.018-.7-4.015 2.998-5.348 4.434-5.298 1.488.032 2.533.999 2.711 1.298"/>
    <path class="lead-color" d="M192.208 61.088a.6.6 0 010-1.201.6.6 0 110 1.201zm12.101-3.091s-.087 0-.011-.067c.081-.211.836-.533 1.32-.566-2.159-.859-3.571.191-3.528.073l-.016-.073s.292-.493 1.001-.985c-2.002 0-3.016 1.067-3.016 1.067l-.006-.147s.127-.41.771-1.02c-2.259.069-4.015 2.934-4.015 2.934s-.394-2.049-2.361-2.049c-1.437-.218-4.648 1.75-3.412 4.413-.573 1.065-2.461 2.715-4.068 6.052-.033.07.032.046 0 .116 1.452-2.067 3.549-4.716 5.684-6.015.213.166 1.447 3.367 4.279 3.548.317.233 1.737 2.6 4.253 2.367.03.265.024 2.542.462 3.282l.103.135c-.008-.071.017-.01.017-.01.2-.223 1.625-1.256 2.802-1.64 0 0 .504-1.567.847-1.966 2.448-.562 3.709-2.498 3.785-4.367.048-2.602-2.283-5.418-4.891-5.082zm-31.194 69.661l-.696.468.742.391c.475.251.771.75.771 1.301a1.47 1.47 0 01-1.469 1.468h-6.332a1.47 1.47 0 01-1.468-1.468c0-.55.297-1.048.773-1.301l.737-.392-.692-.467a8.898 8.898 0 00-4.986-1.544c-1.731 0-3.471.514-5.031 1.542-1.714 1.133-3.277 1.534-5.971 1.534-3.413 0-6.164-1.005-8.66-3.163l-.141-.122h-1.585l-.15.179a1.196 1.196 0 01-.918.417c-.643 0-1.166-.484-1.166-1.079 0-.594.523-1.077 1.166-1.077.361 0 .697.155.92.426l.15.183h1.898v-2.311h-1.894l-.151.179a1.194 1.194 0 01-.918.418c-.642 0-1.165-.484-1.165-1.079s.523-1.079 1.165-1.079c.364 0 .701.156.923.426l.151.182h1.889v-2.31h-1.887l-.151.18a1.189 1.189 0 01-.919.418c-.641 0-1.163-.484-1.163-1.078 0-.595.522-1.079 1.163-1.079.366 0 .694.152.924.429l.15.181h1.883v-2.31h-1.877l-.15.177c-.226.266-.561.42-.919.42-.643 0-1.166-.484-1.166-1.08 0-.594.523-1.078 1.166-1.078.361 0 .697.156.92.427l.15.183h1.876v-2.311h-1.873l-.151.18a1.186 1.186 0 01-.917.418c-.643 0-1.165-.485-1.165-1.08 0-.594.522-1.077 1.165-1.077a1.2 1.2 0 01.926.427l.15.179h1.865v-2.309h-1.862l-.15.179a1.195 1.195 0 01-.923.418c-.641 0-1.163-.484-1.163-1.078 0-.595.522-1.079 1.163-1.079.364 0 .702.156.925.427l.15.183h1.86v-2.309h-1.861l-.15.177a1.202 1.202 0 01-.924.418c-.641 0-1.163-.483-1.163-1.078 0-.594.522-1.078 1.163-1.078.366 0 .703.155.926.425l.148.18 1.477.012 1.582-.796v20.92l.234.424c4.341 2.732 8.703 3.008 12.615.795 4.123-2.332 9.915-2.446 13.324 2.513h-1.616a.502.502 0 000 1.002h5.087a.501.501 0 000-1.002h-1.626c3.464-5.04 9.273-4.559 13.342-2.502 3.602 1.821 7.823 1.557 12.549-.781l.279-.449-.001-20.92 1.584.796 1.473-.012.148-.178c.227-.271.565-.427.93-.427.641 0 1.162.484 1.162 1.078 0 .595-.521 1.078-1.162 1.078-.362 0-.7-.153-.928-.42l-.15-.175h-1.858v2.309h1.857l.15-.181a1.2 1.2 0 01.929-.429c.641 0 1.162.484 1.162 1.079 0 .594-.521 1.078-1.162 1.078-.363 0-.7-.153-.927-.42l-.15-.177h-1.859v2.309h1.87l.15-.182c.221-.27.556-.424.919-.424.642 0 1.164.483 1.164 1.077 0 .595-.522 1.08-1.164 1.08-.355 0-.698-.156-.915-.418l-.15-.18h-1.874v2.311h1.875l.15-.182c.224-.272.562-.428.925-.428.641 0 1.162.484 1.162 1.078 0 .596-.521 1.08-1.162 1.08a1.2 1.2 0 01-.923-.419l-.151-.178h-1.876v2.31h1.879l.151-.181c.225-.273.563-.429.925-.429.64 0 1.16.484 1.16 1.079 0 .594-.52 1.078-1.16 1.078-.363 0-.699-.153-.921-.419l-.151-.179h-1.883v2.31h1.891l.15-.182c.227-.274.555-.426.921-.426.641 0 1.164.484 1.164 1.079s-.523 1.079-1.164 1.079c-.36 0-.695-.153-.919-.419l-.15-.178h-1.893v2.311h1.896l.15-.182c.224-.272.559-.427.919-.427.643 0 1.165.483 1.165 1.077 0 .595-.522 1.079-1.165 1.079a1.22 1.22 0 01-.923-.423l-.15-.173h-1.577l-.141.122c-2.497 2.158-5.25 3.163-8.661 3.163-2.693 0-4.256-.401-5.974-1.534-3.115-2.055-6.952-2.055-10.015.002"/>
    <path class="lead-color" d="M144.534 124.796c3.221 1.708 5.865 2.168 10.611-.296 5.207-2.705 10.571-.933 13.654 2.054v1.573c-3.796-4.917-9.873-4.73-14.239-2.262-3.501 1.98-7.42 1.761-11.353-.626v-21.146l1.06-.533v21.095l.267.141"/>
    <path class="lead-color" d="M145.27 124.049v-20.993l.131-.067c3.62.837 6.352.564 10.014-.986 4.43-1.873 8.931-1.276 13.384 1.775v21.43c-2.152-1.793-5.099-3.047-8.303-3.047-1.885 0-3.86.434-5.813 1.449-4.246 2.204-6.553 1.905-9.413.439m38.184.451c4.745 2.462 7.389 2.003 10.609.296l.266-.141V103.56l1.06.533.001 21.112c-4.313 2.066-8.138 2.284-11.372.649-4.29-2.169-10.367-2.712-14.217 2.272v-1.572c3.08-2.99 8.444-4.762 13.653-2.054"/>
    <path class="lead-color" d="M169.801 125.206v-21.428c4.45-3.051 8.95-3.649 13.383-1.775 3.659 1.55 6.391 1.822 10.011.986l.131.067v20.993c-2.859 1.465-5.166 1.765-9.41-.439-5.282-2.742-10.701-1.251-14.115 1.596M193.549 99.208l-5.668-4.281-5.669 4.281 2.172-6.837-5.971-4.303h7.273l2.195-6.878 2.194 6.878h7.276l-5.971 4.304 2.169 6.836M156.358 99.268l-5.67-4.285-5.67 4.286 2.173-6.839-5.972-4.307h7.276l2.193-6.878 2.192 6.878h7.278l-5.972 4.307 2.172 6.838M163.625 152.931l2.173-6.837-5.974-4.306h7.278l2.192-6.876 2.192 6.876h7.277l-5.973 4.306 2.172 6.837-5.668-4.282-5.669 4.282"/>
  </g>
</svg>